<svg width="137" height="114" viewBox="0 0 137 114" fill="none" xmlns="http://www.w3.org/2000/svg">
<g clip-path="url(#clip0_1184_13320)">
<path d="M71.0909 21.3166C60.2144 20.4671 28.7985 25.9976 28.4708 58.7827C28.1519 90.1608 65.6438 90.4793 74.6249 90.1608C83.5971 89.8422 108.919 85.0373 109.238 57.827C109.557 30.6079 87.441 22.6085 71.0998 21.3254L71.0909 21.3166Z" fill="white"/>
<path d="M86.9007 24.5642C82.7822 27.856 77.7071 31.6256 79.1596 39.7843C82.7024 59.6942 97.7594 60.1367 104.526 59.2518C106.041 59.0571 108.84 57.0396 110.168 54.8273C112.028 48.4739 103.083 29.6081 86.9007 24.5642Z" fill="#C2C3CE"/>
<path d="M60.6393 89.2761C59.9573 90.5327 58.8856 110.938 59.4701 112.566C61.3212 114.557 92.6043 113.133 92.4006 109.929C89.035 104.886 80.6828 93.8598 80.1513 90.6388C77.2551 90.8512 62.8358 90.6389 60.6393 89.285V89.2761Z" fill="white"/>
<path d="M63.1726 89.6033C62.7297 90.4174 63.1372 112.478 63.5092 113.522C64.7049 114.805 85.9529 113.23 88.61 111.752C86.4401 108.496 77.7247 91.7093 77.3882 89.6298C75.5193 89.7714 64.5897 90.4793 63.1726 89.6033Z" fill="white"/>
<path d="M48.3369 25.7941C50.2589 21.3077 65.6436 1.45972 68.531 1.45972C69.8153 5.61869 68.531 20.6706 67.5656 21.3077C65.0059 21.9449 53.1463 21.9449 48.3369 25.7941Z" fill="#73757F"/>
<path d="M78.1411 21.6351C78.46 19.0778 85.1913 0.822592 86.7944 1.78712C88.3976 2.75165 95.4478 23.2368 95.7666 29.3248C88.7164 24.2013 78.1411 21.6351 78.1411 21.6351Z" fill="#73757F"/>
<path d="M54.4924 99.6292C52.225 100.187 49.8779 102.983 51.0559 105.912C52.2339 108.841 60.2761 108.168 64.2352 105.115C68.1943 102.054 75.2179 94.3021 75.9176 92.727C79.9653 96.0808 90.5937 106.416 97.458 104.169C101.957 102.691 99.1585 97.4169 96.9265 97.0187C94.6946 96.6117 86.5372 91.8333 85.005 89.8512C84.5532 84.71 81.8607 79.4803 78.2204 82.5508C75.767 79.5776 73.0922 82.365 73.0922 82.365C71.5511 80.7103 67.6717 81.5244 67.592 83.7631C65.0323 83.6658 63.252 88.4088 66.9809 91.7537C60.7189 96.3285 54.5013 99.6292 54.5013 99.6292H54.4924Z" fill="#73757F"/>
<path d="M39.0637 51.8895C30.8532 52.5709 27.4433 62.8179 38.7449 64.0213C53.9701 65.6407 51.7116 50.8453 39.0637 51.8895Z" fill="#FFC0B3"/>
<path d="M96.6076 53.1903C88.3972 53.8628 84.9872 64.1186 96.2888 65.3221C111.514 66.9414 109.256 52.1461 96.6076 53.1903Z" fill="#FFC0B3"/>
<path d="M31.5882 5.98182C31.4111 5.44203 30.1445 13.0255 29.7902 13.9281C27.452 14.6449 24.2103 15.5563 23.8472 15.5563C25.6451 16.4589 28.1694 16.9987 29.4271 17.9012C29.9674 19.8834 31.5882 26.0245 31.5882 27.1129C31.9514 25.1308 32.8459 18.8038 33.2091 18.0871C33.9265 17.5473 36.6279 16.6447 38.789 15.7421C36.6279 15.2023 33.7494 14.4767 33.0319 14.1139C32.4916 10.5036 31.7742 7.07023 31.5882 5.99066V5.98182Z" fill="#FFED6E"/>
<path d="M5.94704 35.9083C5.83189 35.5632 5.01705 40.4566 4.78676 41.0406C3.27221 41.5096 1.18194 42.0936 0.95166 42.0936C2.11193 42.6777 3.74163 43.0228 4.55648 43.6068C4.9019 44.8899 5.95589 48.863 5.95589 49.5621C6.18618 48.279 6.77074 44.1908 7.00102 43.7307C7.46159 43.3767 9.20643 42.7927 10.6058 42.2087C9.20643 41.8636 7.34645 41.3946 6.88588 41.1557C6.54046 38.8196 6.07103 36.6073 5.95589 35.9083H5.94704Z" fill="#FFED6E"/>
<path d="M21.3052 69.7377C21.0218 68.8882 19.029 80.8607 18.4621 82.2854C14.7687 83.4269 9.64937 84.8516 9.08252 84.8516C11.9256 86.2762 15.9024 87.1346 17.8953 88.5592C18.7544 91.7006 21.3141 101.39 21.3141 103.098C21.881 99.9654 23.3069 89.9839 23.8738 88.8424C25.0075 87.9841 29.2677 86.5594 32.6866 85.1347C29.2677 84.2852 24.7241 83.1437 23.5904 82.5685C22.7401 76.861 21.5975 71.4455 21.323 69.7377H21.3052Z" fill="#FFED6E"/>
<path d="M125.251 25.4403C124.977 24.6262 123.09 36.0147 122.55 37.3686C119.034 38.4481 114.171 39.8108 113.631 39.8108C116.332 41.1647 120.114 41.9788 122.01 43.3327C122.824 46.3148 125.26 55.5353 125.26 57.1635C125.8 54.1814 127.156 44.6954 127.687 43.607C128.768 42.7929 132.824 41.439 136.066 40.0763C132.815 39.2622 128.493 38.1827 127.412 37.634C126.606 32.2097 125.526 27.0596 125.251 25.4314V25.4403Z" fill="#FFED6E"/>
<path d="M118.068 75.5691C117.882 75.0116 116.572 82.8694 116.2 83.7985C113.773 84.5507 110.416 85.4798 110.044 85.4798C111.913 86.4178 114.517 86.9752 115.828 87.9132C116.386 89.975 118.068 96.3373 118.068 97.4523C118.44 95.3994 119.37 88.8512 119.751 88.0991C120.495 87.5327 123.294 86.6036 125.535 85.6656C123.294 85.1081 120.309 84.356 119.565 83.9843C119.007 80.2413 118.263 76.684 118.077 75.5602L118.068 75.5691Z" fill="#FFED6E"/>
<path d="M59.9751 88.7449C59.9751 88.7449 51.7026 95.9744 49.9312 99.0715C48.1598 102.169 49.4884 107.478 55.6883 108.363C59.674 104.823 59.9662 88.7449 59.9662 88.7449H59.9751Z" fill="#73757F"/>
<path d="M88.9024 88.0105L84.1816 88.4529C84.1816 88.4529 91.8164 106.602 97.4495 104.169C102.64 100.85 98.6541 96.8594 96.8826 95.532C95.1112 94.2047 88.9113 88.0105 88.9113 88.0105H88.9024Z" fill="#73757F"/>
<path d="M63.3849 90.497C54.8733 90.497 43.8286 87.4441 36.3355 80.2057C30.3304 74.4097 27.4607 66.8705 27.8062 57.7827C28.3819 42.5803 36.5215 33.7138 43.244 28.9619C50.8079 23.6084 60.7455 20.5113 69.824 20.644C86.9535 20.9183 96.8557 28.3514 102.152 34.5456C109.078 42.6511 112.329 53.6591 110.859 63.9858C109.149 75.9406 97.5732 87.0371 85.0493 88.7272C84.6861 88.7803 84.3496 88.5237 84.3053 88.1609C84.2521 87.7981 84.509 87.4618 84.8721 87.4176C96.6432 85.8336 107.936 75.0203 109.539 63.8088C110.965 53.8538 107.821 43.244 101.143 35.4216C96.032 29.4398 86.4398 22.2456 69.8063 21.9802C54.6519 21.7236 30.1444 31.2626 29.1347 57.8446C28.807 66.5342 31.535 73.7372 37.2655 79.2589C45.1837 86.9043 57.247 89.7094 65.6789 89.0989C66.0332 89.0812 66.3609 89.3466 66.3875 89.7094C66.414 90.0722 66.1395 90.3908 65.7763 90.4173C65.0058 90.4704 64.2086 90.497 63.3938 90.497H63.3849Z" fill="#26231E"/>
<path d="M48.1777 26.7764C48.098 26.7764 48.0183 26.7676 47.9474 26.7322C47.602 26.5995 47.4337 26.219 47.5577 25.8739C49.4 20.9627 65.3604 -0.000244141 68.6021 -0.000244141C68.6286 -0.000244141 68.6552 -0.000244141 68.6818 -0.000244141C68.9652 0.0351513 69.1955 0.238675 69.2575 0.504141C70.0723 3.96405 69.0804 13.2642 68.5489 18.255C68.4426 19.2991 68.3541 20.1309 68.3098 20.6442C68.2744 21.007 67.9466 21.2724 67.5924 21.2547C67.2292 21.2193 66.9547 20.9008 66.9812 20.538C67.0255 20.0159 67.1141 19.1753 67.2292 18.1222C67.6809 13.8571 68.5932 5.29138 68.0884 1.53946C64.8024 3.68973 50.8348 20.9273 48.7977 26.3517C48.7003 26.6172 48.4434 26.7853 48.1777 26.7853V26.7764Z" fill="#26231E"/>
<path d="M95.7662 29.3427C95.4385 29.3427 95.1551 29.1038 95.1108 28.7675C94.5971 24.9182 88.7869 5.36224 86.7763 1.86694C85.0403 4.41541 79.5844 18.1223 78.8758 21.4495C78.7961 21.8123 78.433 22.0335 78.0876 21.9627C77.7333 21.8831 77.503 21.5291 77.5738 21.1752C77.937 19.4939 79.7704 14.3704 81.7544 9.50351C85.6426 -0.0267213 86.3955 0.132559 87.0066 0.247595C87.1217 0.274141 87.228 0.327235 87.3166 0.398025C89.5751 2.37132 96.0585 25.7677 96.4305 28.5905C96.4748 28.9533 96.2179 29.2896 95.8637 29.3338C95.8371 29.3338 95.8017 29.3338 95.7751 29.3338L95.7662 29.3427Z" fill="#43384D"/>
<path d="M55.3958 108.602C52.8716 108.602 50.4979 107.567 49.1339 105.709C47.3891 103.328 47.7256 100.258 50.055 97.2756C51.2153 95.7979 53.0487 94.0723 54.8201 92.4087C55.8387 91.4531 56.8927 90.462 57.805 89.5329C58.0618 89.2674 58.487 89.2674 58.7438 89.524C59.0095 89.7806 59.0095 90.2054 58.7527 90.462C57.8227 91.4088 56.7598 92.4087 55.7324 93.3733C53.9964 95.0015 52.2073 96.6916 51.109 98.0897C49.1693 100.567 48.8416 103.054 50.2145 104.921C51.7999 107.08 55.2453 107.877 58.2301 106.762C64.5983 104.39 70.3731 100.249 74.4916 95.0811C77.1133 91.7982 77.2816 88.3648 76.2808 86.4181C75.8291 85.542 75.1648 85.0553 74.4828 85.0819C74.1462 85.0996 73.8185 84.8253 73.7919 84.4624C73.6148 82.1086 71.1525 82.1529 70.6654 82.1883C69.3191 82.2768 68.1323 82.9758 68.1766 83.6395C68.1943 83.8784 68.0791 84.1085 67.8754 84.2324C66.2369 85.3119 64.6603 87.0286 67.0694 90.7275C67.2289 90.9752 67.2111 91.3026 67.0163 91.5239C64.3592 94.559 60.5418 97.0279 57.1761 99.2135C56.3258 99.7622 55.511 100.293 54.767 100.806C54.4659 101.01 54.0496 100.93 53.8459 100.629C53.6421 100.328 53.7219 99.9126 54.023 99.7091C54.7847 99.1958 55.6084 98.656 56.4587 98.1074C59.6118 96.0633 63.1635 93.7538 65.6877 91.0195C63.7746 87.825 64.1732 85.2412 66.8657 83.321C67.0606 81.8786 68.8497 80.9848 70.5768 80.8698C72.5342 80.7371 74.5891 81.6043 75.0408 83.7988C76.0239 83.9758 76.8919 84.6837 77.4676 85.8163C78.6545 88.1436 78.5216 92.1698 75.5279 95.9129C71.2588 101.258 65.2803 105.558 58.6907 108.009C57.6101 108.407 56.4941 108.602 55.4047 108.602H55.3958Z" fill="#26231E"/>
<path d="M94.482 105.549C89.1943 105.549 80.4347 97.4257 76.5376 93.1251C76.2896 92.8508 76.3162 92.4349 76.5819 92.1871C76.8565 91.9394 77.2728 91.9659 77.5208 92.2314C81.8873 97.0452 90.0003 104.213 94.482 104.213C97.0417 104.213 98.8397 103.239 99.4065 101.54C100.018 99.7352 99.1674 97.5584 97.2808 96.116C95.8637 95.0365 93.7292 93.1517 91.8426 91.4969C90.2749 90.1165 88.7869 88.8157 88.1669 88.3644C87.8658 88.1521 87.8038 87.7362 88.0164 87.4353C88.2289 87.1344 88.6452 87.0725 88.9464 87.2849C89.6195 87.7716 91.0632 89.0369 92.7283 90.497C94.5971 92.1429 96.7228 94.01 98.0957 95.063C100.434 96.8505 101.47 99.6202 100.673 101.965C99.9025 104.239 97.6528 105.54 94.482 105.54V105.549Z" fill="#26231E"/>
<path d="M96.2448 98.3459C96.0854 98.3459 95.9348 98.2928 95.8108 98.1778C95.1288 97.576 93.6762 96.5496 92.0023 95.355C88.9909 93.2135 85.5809 90.7889 84.3675 89.3112C84.2789 89.205 84.2258 89.0811 84.2169 88.9484C83.8715 85.285 82.3569 83.2409 81.0549 82.5507C80.5501 82.2852 79.7795 82.0551 78.9647 82.5064C78.6901 82.6568 78.3358 82.5949 78.1321 82.3471C77.4944 81.5684 76.7681 81.2233 76.0153 81.1879C75.289 81.1879 74.6602 81.5596 74.3679 81.9312C74.1376 82.2144 73.7213 82.2586 73.4379 82.0286C73.1545 81.7985 73.1102 81.3826 73.3405 81.0906C73.7922 80.5243 74.7664 79.8694 76.0153 79.8606H76.033C76.7593 79.8606 77.8044 80.0907 78.8141 81.1171C79.7264 80.7809 80.7272 80.8694 81.6838 81.3738C83.6943 82.4356 85.1558 85.1965 85.5278 88.6033C86.7589 89.9749 90.0891 92.3463 92.7817 94.2666C94.4911 95.4877 95.9614 96.5319 96.6965 97.1778C96.9711 97.4168 96.9976 97.8415 96.7585 98.1158C96.6256 98.2662 96.4396 98.3459 96.2625 98.3459H96.2448Z" fill="#26231E"/>
<path d="M59.3286 97.2668H59.302C58.9389 97.2491 58.6466 96.9393 58.6643 96.5765C58.6909 95.7978 59.1072 91.0017 59.4083 89.7452C59.4969 89.3913 59.86 89.17 60.2055 89.2585C60.5598 89.347 60.7812 89.701 60.7015 90.0549C60.4269 91.1876 60.0195 95.904 59.9929 96.6296C59.984 96.9836 59.6829 97.2668 59.3286 97.2668Z" fill="#26231E"/>
<path d="M92.4006 111.309C92.2058 111.309 92.0109 111.221 91.878 111.062C89.8675 108.557 86.7055 103.009 86.2627 102.036C86.1121 101.7 86.2627 101.31 86.5904 101.16C86.9181 101.009 87.3167 101.16 87.4672 101.487C87.8835 102.399 91.0012 107.85 92.9055 110.23C93.1357 110.513 93.0915 110.929 92.7992 111.159C92.6752 111.256 92.5335 111.301 92.3829 111.301L92.4006 111.309Z" fill="#26231E"/>
<path d="M59.7093 112.991C59.4613 112.991 59.2133 112.849 59.107 112.602C58.6199 111.531 59.0982 108.115 59.2487 107.089C59.3019 106.726 59.6473 106.487 60.0104 106.531C60.3736 106.584 60.6216 106.93 60.5684 107.292C60.2761 109.195 60.099 111.558 60.3204 112.053C60.471 112.389 60.3204 112.779 59.9927 112.929C59.9041 112.965 59.8067 112.991 59.7181 112.991H59.7093Z" fill="#26231E"/>
<path d="M31.5884 27.5549C31.5884 27.5549 31.5618 27.5549 31.553 27.5549C31.3227 27.5372 31.1456 27.3426 31.1456 27.1125C31.1456 26.2364 29.8701 21.2368 29.0376 18.1751C28.3644 17.7415 27.3459 17.3787 26.2742 16.9982C25.3796 16.6797 24.4496 16.3523 23.6436 15.9452C23.4576 15.8567 23.3602 15.6443 23.4134 15.4497C23.4576 15.2461 23.6348 15.1134 23.8473 15.1134C24.1662 15.0957 26.903 14.3524 29.4361 13.5737C29.6044 12.972 29.9144 11.3969 30.189 9.98992C31.0658 5.52124 31.0924 5.52124 31.5618 5.52124C31.7567 5.52124 31.9427 5.67167 32.0047 5.84865C32.0755 6.24685 32.1818 6.78663 32.3147 7.48569C32.607 9.04309 33.0587 11.3703 33.4307 13.8038C34.3784 14.1754 37.0709 14.8479 38.8955 15.3081C39.0815 15.3523 39.2143 15.5116 39.232 15.7063C39.2498 15.8921 39.1346 16.0779 38.9575 16.1487C38.2135 16.4584 37.4164 16.7682 36.6458 17.0602C35.3792 17.5469 34.0684 18.0512 33.5635 18.3786C33.3155 19.0954 32.7841 22.4757 32.4564 24.5375C32.2793 25.6347 32.1287 26.6081 32.0224 27.1921C31.987 27.4045 31.801 27.5549 31.5884 27.5549ZM25.2645 15.6886C25.6896 15.8567 26.1325 16.0072 26.5753 16.1664C27.7799 16.5912 28.9224 16.9982 29.6841 17.5469C29.7639 17.6088 29.8259 17.6884 29.8524 17.7858C29.9144 18.0158 30.9418 21.7943 31.5618 24.5198C31.5618 24.4755 31.5707 24.4401 31.5796 24.3959C32.1287 20.9183 32.545 18.414 32.8107 17.892C32.8373 17.83 32.8815 17.7769 32.9435 17.7327C33.4661 17.3433 34.7947 16.8301 36.3358 16.2372C36.6724 16.1045 37.0178 15.9718 37.3632 15.839C35.1755 15.2815 33.4218 14.8126 32.8284 14.5117C32.6955 14.4497 32.607 14.3259 32.5893 14.1843C32.235 11.8305 31.8098 9.54748 31.4998 7.95468C31.3493 8.66259 31.1987 9.47669 31.057 10.1669C30.6318 12.3437 30.3573 13.6887 30.1979 14.1046C30.1447 14.2285 30.0473 14.3259 29.9144 14.3613C28.8604 14.6887 26.717 15.3169 25.2645 15.6974V15.6886Z" fill="#FFA655"/>
<path d="M5.94715 50.0048C5.94715 50.0048 5.92058 50.0048 5.91172 50.0048C5.68144 49.9871 5.51315 49.7924 5.51315 49.5624C5.51315 49.0403 4.74259 45.9874 4.17574 43.8902C3.75946 43.6336 3.13061 43.4124 2.47519 43.1823C1.89062 42.9788 1.27948 42.7664 0.756918 42.501C0.57092 42.4125 0.473493 42.2001 0.526635 42.0054C0.57092 41.8019 0.748061 41.6692 0.96063 41.6692C1.18206 41.6515 2.87375 41.1913 4.44145 40.7047C4.54774 40.2711 4.74259 39.2977 4.90202 38.4836C5.29763 36.466 5.64601 35.4573 5.94715 35.4573C6.13315 35.4573 6.31915 35.5989 6.38114 35.7758C6.43429 36.059 6.50514 36.413 6.58486 36.8642C6.77085 37.8553 7.05428 39.3154 7.28456 40.8551C7.96656 41.1029 9.72025 41.5365 10.7122 41.7842C10.8982 41.8285 11.0311 41.9877 11.0488 42.1824C11.0665 42.3682 10.9514 42.5541 10.7742 42.6249C10.296 42.8195 9.78225 43.0231 9.28626 43.2089C8.50684 43.5097 7.70085 43.8195 7.36428 44.023C7.20485 44.5539 6.87714 46.6422 6.67343 47.9342C6.56714 48.6421 6.46086 49.2704 6.39 49.6509C6.35457 49.8632 6.16858 50.0137 5.95601 50.0137L5.94715 50.0048ZM2.37776 42.209C2.51061 42.2532 2.63461 42.2975 2.75861 42.3417C3.54689 42.6249 4.29088 42.8815 4.80459 43.2531C4.8843 43.3151 4.9463 43.3947 4.97287 43.5009C5.0083 43.6248 5.5043 45.4476 5.89401 47.0847C6.24829 44.899 6.44314 43.8372 6.59371 43.5363C6.62029 43.4744 6.66457 43.4213 6.72657 43.3859C7.06314 43.1292 7.79827 42.8372 8.9674 42.3948C9.0294 42.3682 9.10026 42.3417 9.17112 42.3151C7.99313 42.0143 7.03657 41.74 6.68228 41.563C6.55829 41.5011 6.46086 41.3772 6.44314 41.2356C6.266 40.0764 6.06229 38.9349 5.89401 38.0058C5.84972 38.227 5.80544 38.4482 5.77001 38.6606C5.49544 40.0675 5.3183 40.9436 5.20316 41.2267C5.15887 41.3506 5.05259 41.448 4.91973 41.4834C4.40602 41.6426 3.30775 41.97 2.37776 42.2178V42.209Z" fill="#FFA655"/>
<path d="M21.305 103.541C21.305 103.541 21.2784 103.541 21.2607 103.541C21.0304 103.523 20.8533 103.328 20.8533 103.098C20.8533 101.673 18.8162 93.6563 17.4965 88.8249C16.4159 88.0904 14.7596 87.5064 13.006 86.887C11.5888 86.3914 10.1274 85.8693 8.86971 85.2411C8.68371 85.1526 8.58629 84.9402 8.63943 84.7455C8.68371 84.542 8.86085 84.4093 9.07342 84.4093C9.57828 84.3916 14.2548 83.1173 18.1076 81.9316C18.3645 81.0733 18.8605 78.5513 19.3387 76.1179C20.685 69.26 20.7382 69.26 21.2607 69.26C21.4467 69.26 21.6593 69.4281 21.7213 69.6051C21.8187 70.1891 21.987 71.0298 22.1907 72.1182C22.669 74.6136 23.3864 78.3655 23.971 82.2767C25.3881 82.8696 29.9761 84.0199 32.7749 84.7101C32.9609 84.7544 33.0937 84.9137 33.1115 85.1083C33.1292 85.2942 33.014 85.48 32.8369 85.5508C31.6766 86.0375 30.4101 86.5242 29.2055 86.9843C27.0355 87.8161 24.9895 88.6125 24.2101 89.1346C23.8204 90.1522 22.979 95.4438 22.421 98.9834C22.1464 100.718 21.8984 102.249 21.7301 103.187C21.6947 103.399 21.5087 103.549 21.2962 103.549L21.305 103.541ZM10.4994 85.011C11.4028 85.3827 12.3682 85.7278 13.3071 86.064C15.1848 86.7277 16.9651 87.356 18.143 88.1966C18.2228 88.2585 18.2848 88.347 18.3113 88.4444C18.3379 88.5417 20.3839 96.0455 21.305 100.39C21.3847 99.9037 21.4644 99.3904 21.553 98.8506C22.3944 93.559 23.0676 89.4531 23.4661 88.6567C23.5016 88.5948 23.537 88.5417 23.599 88.4975C24.3961 87.8957 26.4864 87.0905 28.9044 86.1614C29.6838 85.8605 30.4809 85.5508 31.2603 85.2411C27.6909 84.3473 24.3784 83.4713 23.3776 82.9758C23.2447 82.9138 23.1561 82.7899 23.1384 82.6484C22.545 78.6664 21.8099 74.8259 21.3227 72.2952C21.2784 72.0297 21.2253 71.7819 21.181 71.5519C20.8887 72.8704 20.5167 74.7552 20.2156 76.2949C19.6576 79.1177 19.135 81.79 18.8693 82.4625C18.825 82.5864 18.7188 82.6838 18.5859 82.7191C16.3982 83.3917 12.5897 84.4978 10.4906 85.0199L10.4994 85.011Z" fill="#FFA655"/>
<path d="M125.252 57.6061C125.252 57.6061 125.225 57.6061 125.216 57.6061C124.986 57.5884 124.809 57.3938 124.809 57.1637C124.809 55.8098 122.869 48.1998 121.62 43.6072C120.593 42.917 119.025 42.3595 117.36 41.7755C116.014 41.2977 114.623 40.811 113.428 40.2093C113.242 40.1208 113.153 39.9084 113.197 39.7137C113.242 39.5102 113.419 39.3775 113.631 39.3775C114.083 39.3598 118.281 38.2271 122.205 37.0237C122.453 36.183 122.94 33.723 123.374 31.5197C124.658 24.9626 124.711 24.9626 125.225 24.9626C125.411 24.9626 125.615 25.1308 125.677 25.3078C125.774 25.8652 125.934 26.6793 126.129 27.7235C126.58 30.095 127.262 33.6434 127.82 37.3511C129.158 37.9085 133.356 38.9616 136.181 39.6606C136.367 39.7049 136.5 39.8641 136.518 40.0588C136.536 40.2535 136.42 40.4305 136.252 40.5013C135.145 40.9614 133.94 41.4304 132.798 41.864C130.743 42.6515 128.803 43.4037 128.059 43.9081C127.687 44.8815 126.89 49.9076 126.359 53.2702C126.102 54.9161 125.863 56.3673 125.703 57.2522C125.668 57.4645 125.482 57.615 125.269 57.615L125.252 57.6061ZM115.04 39.9703C115.881 40.3154 116.776 40.634 117.652 40.9437C119.442 41.5808 121.133 42.1737 122.258 42.9789C122.338 43.0409 122.4 43.1205 122.426 43.2267C122.453 43.3152 124.357 50.3235 125.252 54.4648C125.323 54.04 125.393 53.5887 125.464 53.1286C126.261 48.0936 126.908 44.1824 127.289 43.4214C127.315 43.3594 127.36 43.3064 127.422 43.271C128.183 42.6958 130.167 41.9259 132.47 41.041C133.188 40.7667 133.923 40.4836 134.649 40.1916C131.177 39.3155 128.157 38.5191 127.218 38.0501C127.085 37.9882 126.997 37.8643 126.979 37.7227C126.412 33.9443 125.721 30.3074 125.261 27.8916C125.216 27.6704 125.181 27.4669 125.145 27.2722C124.871 28.5199 124.525 30.272 124.251 31.6966C123.728 34.3778 123.223 36.9086 122.975 37.5457C122.931 37.6696 122.825 37.767 122.692 37.8024C120.637 38.4395 117.068 39.4748 115.057 39.9703H115.04Z" fill="#FFA655"/>
<path d="M118.069 97.9038C118.069 97.9038 118.042 97.9038 118.024 97.9038C117.794 97.8861 117.617 97.6915 117.617 97.4614C117.617 96.5411 116.297 91.3645 115.438 88.1966C114.747 87.7453 113.684 87.3737 112.577 86.9755C111.647 86.6481 110.682 86.303 109.849 85.8871C109.663 85.7986 109.566 85.5862 109.619 85.3915C109.663 85.1968 109.849 85.0553 110.053 85.0553C110.381 85.0376 113.268 84.25 115.854 83.4625C116.031 82.843 116.35 81.206 116.634 79.7371C117.546 75.1091 117.564 75.1091 118.042 75.1091C118.237 75.1091 118.423 75.2596 118.485 75.4365C118.556 75.8436 118.662 76.4011 118.804 77.1178C119.114 78.7372 119.574 81.1529 119.964 83.6925C120.956 84.0819 123.852 84.8075 125.641 85.2588C125.827 85.303 125.96 85.4623 125.978 85.657C125.996 85.8428 125.88 86.0286 125.703 86.0994C124.942 86.418 124.109 86.7366 123.321 87.0463C122.001 87.5595 120.637 88.0816 120.115 88.4178C119.858 89.1523 119.309 92.6564 118.963 94.789C118.786 95.9305 118.618 96.9481 118.511 97.5587C118.476 97.7711 118.29 97.9215 118.077 97.9215L118.069 97.9038ZM111.461 85.6216C111.922 85.7986 112.4 85.9667 112.869 86.1348C114.118 86.5773 115.287 86.9932 116.085 87.5595C116.164 87.6214 116.226 87.7011 116.253 87.7984C116.271 87.8604 117.387 91.9662 118.042 94.8598C118.051 94.7802 118.069 94.7094 118.077 94.6297C118.653 91.0371 119.069 88.4532 119.344 87.9134C119.379 87.8515 119.415 87.7984 119.477 87.763C120.017 87.356 121.399 86.825 122.993 86.2056C123.356 86.064 123.728 85.9225 124.1 85.7809C121.868 85.2145 119.982 84.7102 119.353 84.3916C119.229 84.3297 119.131 84.2058 119.114 84.0642C118.742 81.5865 118.29 79.1885 117.971 77.5249C117.812 78.277 117.643 79.1531 117.493 79.8964C117.05 82.1528 116.767 83.5421 116.607 83.9669C116.554 84.0907 116.457 84.1881 116.324 84.2235C115.039 84.6217 112.887 85.2499 111.452 85.6216H111.461Z" fill="#FFA655"/>
<path d="M88.2734 27.75C89.4602 30.7055 92.5425 32.9531 95.3768 34.1477C95.9436 34.3866 97.0065 33.8115 96.1473 33.4487C93.5611 32.3602 90.7357 30.3073 89.6462 27.6172C89.4337 27.0952 88.0254 27.1571 88.2645 27.7411L88.2734 27.75Z" fill="#26231E"/>
<path d="M46.0166 32.7494C49.2494 31.3424 52.1988 28.9178 53.7665 25.7234C53.9614 25.3163 52.7037 24.6792 52.5088 25.0774C50.9588 28.2276 48.0626 30.5902 44.874 31.9795C44.502 32.1388 45.6003 32.9352 46.0166 32.7494Z" fill="#26231E"/>
<path d="M63.4203 39.8107C59.2663 39.6249 55.1212 45.4917 59.9483 47.9163C63.6063 49.748 69.1508 47.9605 69.3368 43.421C68.9117 43.5626 68.4865 43.7042 68.0614 43.8369C71.0196 52.4734 83.5612 48.1729 79.6375 40.2708C79.3364 39.6691 78.0964 40.3505 78.3975 40.9611C79.9032 43.9962 78.619 47.0668 75.1736 47.757C72.109 48.3764 70.1605 45.6598 69.3014 43.1556C69.1154 42.5981 68.0437 43.1202 68.0259 43.5715C67.9197 46.1111 66.0685 47.2526 63.748 47.5446C59.222 48.0933 56.9901 40.6602 62.8977 40.9345C63.5354 40.9611 64.2971 39.8638 63.4291 39.8284L63.4203 39.8107Z" fill="#26231E"/>
<path d="M91.9223 34.2805C87.5913 34.2805 85.9084 39.5633 87.113 45.8017C88.3175 52.049 90.7178 54.2082 94.3226 53.9693C97.9274 53.7303 97.9274 47.9609 97.21 43.8815C96.4837 39.8022 94.3226 34.2805 91.9223 34.2805Z" fill="#405CA8"/>
<path d="M51.2954 33.8024C48.4345 32.5548 43.1203 37.6429 41.1983 42.6867C39.2763 47.7306 39.8875 52.2966 44.0857 52.5355C48.408 52.7744 50.6045 49.1021 52.0216 45.3325C53.4653 41.4921 55.1482 35.4837 51.3042 33.8024H51.2954Z" fill="#405CA8"/>
<path d="M90.7181 35.2449C90.9572 40.7666 93.1184 43.6513 87.1133 45.3326C91.4444 45.0937 92.1618 45.0937 93.8446 52.5356C92.6401 44.8459 94.0838 44.8459 97.2103 43.8902C92.4009 43.4124 93.1272 44.1291 90.7181 35.2449Z" fill="white"/>
<path d="M50.0993 34.2805C48.6556 38.6076 47.9382 43.1648 42.8896 41.9613C45.5379 44.6071 46.4945 46.2796 44.0942 52.5269C46.9816 46.5185 47.9382 44.3594 52.0301 45.3239C48.9036 42.2003 48.1862 42.917 50.1081 34.2805H50.0993Z" fill="white"/>
</g>
<defs>
<clipPath id="clip0_1184_13320">
<rect width="136" height="114" fill="white" transform="translate(0.5 -0.000244141)"/>
</clipPath>
</defs>
</svg>
