<svg width="14" height="15" viewBox="0 0 14 15" fill="none" xmlns="http://www.w3.org/2000/svg">
<path d="M0.34467 13.0947C0.0517767 13.3876 0.0517767 13.8624 0.34467 14.1553C0.637563 14.4482 1.11244 14.4482 1.40533 14.1553L0.34467 13.0947ZM7.53033 8.03033C7.82322 7.73744 7.82322 7.26256 7.53033 6.96967C7.23744 6.67678 6.76256 6.67678 6.46967 6.96967L7.53033 8.03033ZM6.46967 6.96967C6.17678 7.26256 6.17678 7.73744 6.46967 8.03033C6.76256 8.32322 7.23744 8.32322 7.53033 8.03033L6.46967 6.96967ZM13.6553 1.90533C13.9482 1.61244 13.9482 1.13756 13.6553 0.84467C13.3624 0.551777 12.8876 0.551777 12.5947 0.84467L13.6553 1.90533ZM7.53033 6.96967C7.23744 6.67678 6.76256 6.67678 6.46967 6.96967C6.17678 7.26256 6.17678 7.73744 6.46967 8.03033L7.53033 6.96967ZM12.5947 14.1553C12.8876 14.4482 13.3624 14.4482 13.6553 14.1553C13.9482 13.8624 13.9482 13.3876 13.6553 13.0947L12.5947 14.1553ZM6.46967 8.03033C6.76256 8.32322 7.23744 8.32322 7.53033 8.03033C7.82322 7.73744 7.82322 7.26256 7.53033 6.96967L6.46967 8.03033ZM1.40533 0.84467C1.11244 0.551777 0.637563 0.551777 0.34467 0.84467C0.0517767 1.13756 0.0517767 1.61244 0.34467 1.90533L1.40533 0.84467ZM1.40533 14.1553L7.53033 8.03033L6.46967 6.96967L0.34467 13.0947L1.40533 14.1553ZM7.53033 8.03033L13.6553 1.90533L12.5947 0.84467L6.46967 6.96967L7.53033 8.03033ZM6.46967 8.03033L12.5947 14.1553L13.6553 13.0947L7.53033 6.96967L6.46967 8.03033ZM7.53033 6.96967L1.40533 0.84467L0.34467 1.90533L6.46967 8.03033L7.53033 6.96967Z" fill="white"/>
</svg>
